<?xml version="1.0" encoding="iso-8859-1"?>
<!-- Generator: Adobe Illustrator 19.0.0, SVG Export Plug-In . SVG Version: 6.00 Build 0)  -->
<svg version="1.1" id="Layer_1" xmlns="http://www.w3.org/2000/svg" xmlns:xlink="http://www.w3.org/1999/xlink" x="0px" y="0px"
	 viewBox="0 0 512 512" style="enable-background:new 0 0 512 512;" xml:space="preserve">
<polygon style="fill:#CEE8FA;" points="358.663,155.713 256,224.199 153.337,155.713 153.337,14.358 358.663,14.358 "/>
<g>
	<path style="fill:#2D527C;" d="M287.357,220.54l79.275-52.882c3.992-2.664,6.39-7.146,6.39-11.945V14.358
		c0-7.93-6.43-14.358-14.358-14.358H153.337c-7.929,0-14.358,6.428-14.358,14.358v141.355c0,4.799,2.398,9.281,6.39,11.945
		l79.275,52.882c-66.27,14.414-116.057,73.52-116.057,144.046C108.586,445.869,174.717,512,256,512
		c36.894,0,72.202-13.698,99.419-38.57c5.854-5.35,6.262-14.432,0.913-20.286c-5.349-5.853-14.432-6.263-20.286-0.913
		c-21.912,20.024-50.341,31.052-80.047,31.052c-65.45,0-118.697-53.247-118.697-118.697S190.55,245.889,256,245.889
		s118.697,53.247,118.697,118.697c0,7.93,6.43,14.358,14.358,14.358c7.929,0,14.358-6.428,14.358-14.358
		C403.414,294.061,353.628,234.955,287.357,220.54z M167.695,28.717h176.609v119.315L256,206.937l-88.305-58.906L167.695,28.717
		L167.695,28.717z"/>
	<path style="fill:#2D527C;" d="M256,453.608c-49.087,0-89.022-39.935-89.022-89.022c0-7.93,6.43-14.358,14.358-14.358
		c7.929,0,14.358,6.428,14.358,14.358c0,33.253,27.053,60.306,60.306,60.306s60.306-27.053,60.306-60.306S289.253,304.28,256,304.28
		c-7.929,0-14.358-6.428-14.358-14.358s6.43-14.358,14.358-14.358c49.087,0,89.023,39.935,89.023,89.023
		S305.087,453.608,256,453.608z"/>
	<path style="fill:#2D527C;" d="M256,401.616c-7.929,0-14.358-6.428-14.358-14.358v-41.4c0-7.93,6.43-14.358,14.358-14.358
		c7.929,0,14.358,6.428,14.358,14.358v41.4C270.359,395.187,263.929,401.616,256,401.616z"/>
</g>
<g>
</g>
<g>
</g>
<g>
</g>
<g>
</g>
<g>
</g>
<g>
</g>
<g>
</g>
<g>
</g>
<g>
</g>
<g>
</g>
<g>
</g>
<g>
</g>
<g>
</g>
<g>
</g>
<g>
</g>
</svg>
